<?xml version="1.0" encoding="utf-8"?>
<!-- Generator: Adobe Illustrator 19.0.0, SVG Export Plug-In . SVG Version: 6.00 Build 0)  -->
<svg version="1.1" xmlns="http://www.w3.org/2000/svg" xmlns:xlink="http://www.w3.org/1999/xlink" x="0px" y="0px"
	 viewBox="0 0 960 560" style="enable-background:new 0 0 960 560;" xml:space="preserve">
<style type="text/css">
	.st0{fill:url(#XMLID_3_);}
</style>
<g id="Layer_1">
	<linearGradient id="XMLID_3_" gradientUnits="userSpaceOnUse" x1="295.3304" y1="516.9556" x2="140.0457" y2="247.9946">
		<stop  offset="0" style="stop-color:#29ABE2;stop-opacity:0.1"/>
		<stop  offset="0.399" style="stop-color:#00FFFF;stop-opacity:5.000000e-002"/>
	</linearGradient>
	<path id="XMLID_1_" class="st0" d="M152.2,330.9c-12.8-9.3-26.8-20.9-27.2-36.7c-0.3-13,9.4-24.6,21.3-29.9
		c11.8-5.3,25.4-5.4,38.3-4.1c17.7,1.8,35.6,6.1,50,16.5c14.4,10.4,24.7,27.7,23.1,45.3c-4.1-21.8,11.9-44.6,33.3-50.5
		s45.4,4.2,58.5,22c6.7,9.2,10.9,21.3,7.1,32.1c-4.9,14.1-20.9,20.5-35.2,24.6c16.2-3.1,32.7,2.3,48.1,7.9
		c14.9,5.4,30.7,11.9,39.2,25.2c5.8,9.1,7.4,20.2,8.8,30.9c1.6,12.3,2.6,26.6-6.3,35.2c-6.4,6.1-15.9,7.2-24.7,7.9
		c-13.9,1.1-28.8,1.5-40.7-5.7c-11.5-6.9-18.4-20.8-17-34.2c-16.2,23.1-33.2,47-58,60.4c-10.2,5.5-21.7,9.1-33.3,8.7
		c-15.7-0.6-31-8.9-40-21.8s-11.6-30.1-6.7-45.1c-23.6,8.7-48.3,15.3-73.4,15.1s-50.8-7.6-69.8-24.1c-6.3-5.5-12-12.1-14.6-20.1
		s-1.9-17.4,3.5-23.8c8.2-9.8,23-9.6,35.6-8.5c-10.1-4.3-13.4-16.7-15.1-27.5c-2-12.7-2.9-27.3,5.7-36.7c4.9-5.3,12.1-8,19.2-9.3
		c16.2-3,33.5,0,47.7,8.5"/>
</g>
<g id="Layer_2">
</g>
</svg>
